<?xml version="1.0" encoding="UTF-8"?>
<svg  xmlns="http://www.w3.org/2000/svg" viewBox="0 0 1027.89 1024">
  <defs>
    <style>
      .riaya-logo-cls-1 {
        fill: #27573a;
      }

      .riaya-logo-cls-2 {
        fill: #409557;
      }

      .riaya-logo-cls-3 {
        fill: #73bc91;
      }

      .riaya-logo-cls-4 {
        fill: #227a45;
      }
    </style>
  </defs>
  <path class="riaya-logo-cls-3" d="M378.92,1023.75c-124.81,0-249.62,0-374.43-.06-1.46,0-3.39,1.15-4.49-.94,6.21-37.27,21.1-71.61,36-105.92,14.88-34.26,32.85-66.92,53.28-98.17,16.47-25.21,34.39-49.37,54.21-72.13,14.44-16.58,29.3-32.75,45.21-47.9,25.69-24.47,53.09-46.88,82.12-67.32,30.15-21.23,61.9-39.71,95.03-55.83,39.03-18.98,79.7-33.53,121.65-44.58,28.33-7.46,57.01-13.17,86.06-16.83,17.3-2.18,34.67-3.87,52.14-4.32,85.43-2.2,170.87-.43,256.31-.92,41.31-.24,82.63-.06,123.94,0,2.94,0,6.04-.65,8.74,1.24,2.28,2.56,1.17,5.35,.38,8.02-8.88,30.22-19.77,59.7-32.71,88.41-16.31,36.2-35.7,70.7-57.87,103.61-16.65,24.71-34.56,48.49-54.26,70.89-14.62,16.62-29.43,33.09-45.49,48.33-27.05,25.68-55.43,49.77-86.04,71.21-32.38,22.68-66.15,42.93-101.76,60.1-37.28,17.97-75.96,32.2-115.88,43.09-24.9,6.8-50.15,11.89-75.65,15.77-13.81,2.11-27.73,2.88-41.7,3.39-8.26,.3-16.57-.29-24.8,.86Z"/>
  <path class="riaya-logo-cls-4" d="M0,991.76v-178.94c1.16-7.72,1.18-15.53,1.36-23.28,.39-17.02,3.23-33.7,5.7-50.47,3.54-24.06,9.03-47.7,15.45-71.1,9.44-34.39,21.59-67.82,36.06-100.44,12.17-27.44,25.89-54.05,41.15-79.86,16.71-28.27,35.93-54.8,56.9-80.07,14.89-17.95,30.62-35.12,47.45-51.27,23.56-22.61,48.63-43.43,75.13-62.51,29.78-21.44,61.13-40.34,93.95-56.69,34.01-16.95,69.13-31.19,105.5-42.43,28.98-8.96,58.39-15.95,88.24-21.07,16.36-2.8,32.86-4.78,49.47-5.89,10.6-.71,21.2-1.87,31.8-2.28,6.11-.24,12.24-.56,18.37-.56,117.47,0,234.94,0,352.41,.03,3.07,0,6.43-.78,8.86,2.1v167.94c-1.41,1.69-3.29,2.1-5.38,2.1-2.33,0-4.67,.03-7,.03-109.14,0-218.29,.04-327.43-.03-27.96-.02-55.83,.98-83.68,3.78-26.02,2.61-51.75,6.7-77.24,12.36-39.43,8.76-77.63,21.4-114.76,37.22-30.22,12.88-59.14,28.33-87.03,45.68-22.78,14.16-44.82,29.42-65.7,46.24-13.85,11.16-27.48,22.61-40.47,34.81-7.29,6.84-14.62,13.62-21.56,20.8-26.63,27.56-51.34,56.69-73.23,88.23-19.79,28.52-37.36,58.29-52.66,89.41-13.46,27.37-24.73,55.63-34.36,84.58-6.83,20.55-12.67,41.35-17.34,62.47-5.16,23.37-9.28,46.91-12.07,70.71-2.1,17.83-3.64,35.69-4.84,53.59-.14,2.08,0,4.49-3.05,4.79Z"/>
  <path class="riaya-logo-cls-2" d="M0,991.76c2.21-5.89,1.28-12.16,1.76-18.19,2.14-26.82,5.28-53.45,9.87-79.99,5.03-29.06,11.75-57.67,20.71-85.7,8.97-28.05,19.59-55.5,32.11-82.24,15.22-32.49,32.81-63.58,52.9-93.26,14.74-21.75,30.55-42.69,47.93-62.46,13.74-15.63,27.59-31.14,42.7-45.44,26.1-24.7,53.57-47.73,83.06-68.37,30.07-21.04,61.41-39.92,94.45-55.83,37.72-18.16,76.81-32.7,117.35-43.39,27.85-7.34,56.07-12.67,84.54-16.65,11.98-1.67,24.1-2.73,36.19-3.2,117.55-4.53,235.14-.92,352.71-2.04,17.16-.16,34.32-.03,51.48-.04v124.96c-1.5,15.37-4.51,30.45-9.02,45.22-.71,2.32-.98,5.03-4.04,5.74-119.28,0-238.56-.05-357.84,.06-52.93,.05-105.11,6.48-156.56,19.01-53.3,12.99-104.39,31.78-152.97,57.31-44.22,23.23-85.46,50.88-123.66,83.12-19.24,16.23-37.76,33.21-55.05,51.47-26.25,27.71-50.15,57.3-71.47,89.02-29.48,43.85-53.73,90.4-72.97,139.55-8.62,22.01-16.3,44.36-22.21,67.27-.45,1.76-.69,3.61-1.99,5.04v-30.99Z"/>
  <path class="riaya-logo-cls-1" d="M1027.89,4.59c0-3.75-.85-4.6-4.6-4.59-123.81,.11-247.62,.09-371.43,.09h-13c-.04,.17-.06,.34-.08,.51-4.43,.04-8.85,.37-13.26,.4-20.52,.1-40.78,2.53-60.96,6.05-35.47,6.18-70.36,14.7-104.43,26.3-49.23,16.77-95.56,39.6-139.61,67.26-37.5,23.55-72.1,50.81-104.39,80.94-29.86,27.86-57.02,58.23-81.43,91.08-35.06,47.16-63.8,97.81-85.79,152.28-15.3,37.89-27.06,76.88-35.61,116.83C5.55,578,.22,614.53,.5,651.71c-.17,.02-.34,.06-.5,.17v160.95c2.43-10.85,2.79-21.98,3.77-32.98,1.64-18.56,4.68-36.89,7.96-55.15,5.05-28.16,12.34-55.8,21.01-83.11,9.63-30.35,21.28-59.9,34.86-88.64,20.38-43.11,44.14-84.25,73.36-122.12,15.96-20.68,32.8-40.56,50.97-59.31,16.1-16.61,33.22-32.14,51-46.91,17.9-14.88,36.48-28.92,55.89-41.77,31.81-21.06,65.07-39.52,99.86-55.3,27.94-12.67,56.52-23.6,85.88-32.34,36.83-10.95,74.23-19.33,112.56-23.38,24.07-2.55,48.17-4.64,72.34-4.68,119.44-.21,238.89-.1,358.33-.1,0-54.15-.04-108.3,.1-162.44Z"/>
</svg>