<?xml version="1.0" encoding="UTF-8"?>
<svg id="Layer_1" data-name="Layer 1" xmlns="http://www.w3.org/2000/svg" viewBox="0 0 197.37 196.74">
  <defs>
    <style>
      .cls-1 {
        fill: #208748;
      }

      .cls-2 {
        fill: #245637;
      }

      .cls-3 {
        fill: #63b775;
      }

      .cls-4 {
        fill: #0e6f44;
      }
    </style>
  </defs>
  <path class="cls-3" d="M0,128.01l.22-.2s.28,.12,.28,.12c.1,6.73,.2,13.46,.3,20.19,0,10.91,.01,21.82,.02,32.72-.06,2.62-.13,5.24-.17,7.87-.01,.73,.07,1.47,.11,2.2,.37-.68,.85-1.32,1.09-2.04,10.09-29.87,28.21-53.52,54.82-70.53,18.34-11.72,38.43-18.98,60.16-19.77,24.11-.88,48.28-.23,72.43-.21,1.22,0,2.43,.39,3.65,.6-11.95,48.83-56.13,88.93-105.37,96-10.46,1.5-20.92,1.63-31.42,1.64-18.7,.02-37.4,.08-56.11,.12v-68.72Z"/>
  <path class="cls-4" d="M.82,180.84c0-10.91-.01-21.82-.02-32.72,1-5.32,2.15-10.61,2.96-15.96,1.2-7.93,4.17-15.44,7.39-22.52,4.04-8.87,9.02-17.37,15.18-25.31,6.22-8.03,12.94-15.38,20.41-22.04,9.27-8.27,19.94-14.6,31.32-19.57,14.27-6.24,29.16-10.09,44.8-10.71,22.94,0,45.88,.02,68.82-.02,1.95,0,3.72,.2,5.28,1.42,0,.41,0,.82,0,1.23-.09,8.81-.15,17.63-.29,26.44-.02,1.17,.61,2.57-.78,3.46-23.21-.07-46.42-.24-69.63-.15-9.96,.04-19.76,1.73-29.36,4.36-20.01,5.49-37.67,15.15-53.24,28.99-14.53,12.92-25.23,28.37-33.02,46.02-5.23,11.85-8.25,24.28-9.82,37.1Z"/>
  <path class="cls-2" d="M122.86,32.01c-15.64,.62-30.53,4.48-44.8,10.71-11.38,4.97-22.05,11.3-31.32,19.57-7.47,6.66-14.19,14.01-20.41,22.04-6.16,7.95-11.14,16.44-15.18,25.31-3.22,7.07-6.2,14.58-7.39,22.52-.81,5.35-1.96,10.64-2.96,15.96-.1-6.73-.2-13.46-.3-20.19C1.17,64.24,50.67,8.85,113.66,1.09,124.87-.29,136.09,.11,147.31,.04c15.65-.09,31.3,0,46.94-.04,1.7,0,2.96-.12,2.92,2.32-.16,9.76-.13,19.52-.17,29.28-18.44,.04-36.89,.06-55.33,.13-6.27,.02-12.54,.18-18.8,.27Z"/>
  <path class="cls-1" d="M.82,180.84c1.57-12.82,4.6-25.25,9.82-37.1,7.78-17.65,18.48-33.1,33.02-46.02,15.57-13.84,33.23-23.5,53.24-28.99,9.6-2.63,19.4-4.32,29.36-4.36,23.21-.09,46.42,.08,69.63,.15,1.83,2.94,.18,6.24,.94,9.29-.33,8.54-1.77,16.9-3.92,25.15-1.22-.21-2.43-.6-3.65-.6-24.15-.02-48.32-.67-72.43,.21-21.72,.79-41.81,8.05-60.16,19.77C30.06,135.35,11.94,159,1.85,188.87c-.24,.72-.72,1.36-1.09,2.04-.04-.73-.12-1.47-.11-2.2,.04-2.62,.11-5.24,.17-7.87Z"/>
  <path class="cls-3" d="M122.86,32.01c6.27-.09,12.54-.25,18.8-.27,18.44-.07,36.89-.09,55.33-.13,.47,.61,.44,1.21-.04,1.79-1.56-1.22-3.33-1.42-5.28-1.42-22.94,.05-45.88,.03-68.82,.02Z"/>
  <path class="cls-3" d="M196.82,73.82c-.76-3.05,.9-6.35-.94-9.29,1.4-.89,.76-2.29,.78-3.46,.14-8.81,.2-17.63,.29-26.44,.47,13.06,.67,26.13-.13,39.19Z"/>
</svg>